REM DIRINDEX 1\4,1\2\5,1\2\6,1\3\7\9,1\3\7\10,1\3\8\11,1\3\8\12
REM DIRNAME cjc051,folder01,folder02,folder03,folder04,folder05,folder06,folder07,folder08,folder09,folder10,folder11
TITLE ""
FILE "CD-ATrack30.mp3" MP3
  TRACK 01 AUDIO
    TITLE "0:"
    INDEX 01 00:00:00
  TRACK 02 AUDIO
    TITLE "6:cjc051_1025"
    INDEX 01 00:00:19
  TRACK 03 AUDIO
    TITLE "5:cjc051_1026"
    INDEX 01 00:01:24
  TRACK 04 AUDIO
    TITLE "5:cjc051_1027"
    INDEX 01 00:02:14
  TRACK 05 AUDIO
    TITLE "5:cjc051_1028"
    INDEX 01 00:03:06
  TRACK 06 AUDIO
    TITLE "6:cjc051_1029"
    INDEX 01 00:04:13
  TRACK 07 AUDIO
    TITLE "5:cjc051_1030"
    INDEX 01 00:05:24
  TRACK 08 AUDIO
    TITLE "5:cjc051_1031"
    INDEX 01 00:06:08
  TRACK 09 AUDIO
    TITLE "5:cjc051_1032"
    INDEX 01 00:06:67
  TRACK 10 AUDIO
    TITLE "6:cjc051_1033"
    INDEX 01 00:07:64
  TRACK 11 AUDIO
    TITLE "5:cjc051_1034"
    INDEX 01 00:09:20
  TRACK 12 AUDIO
    TITLE "5:cjc051_1035"
    INDEX 01 00:10:04
  TRACK 13 AUDIO
    TITLE "5:cjc051_1036"
    INDEX 01 00:10:65
  TRACK 14 AUDIO
    TITLE "6:cjc051_1037"
    INDEX 01 00:11:64
  TRACK 15 AUDIO
    TITLE "5:cjc051_1038"
    INDEX 01 00:13:06
  TRACK 16 AUDIO
    TITLE "5:cjc051_1039"
    INDEX 01 00:13:71
  TRACK 17 AUDIO
    TITLE "5:cjc051_1040"
    INDEX 01 00:14:60
  TRACK 18 AUDIO
    TITLE "6:cjc051_1041"
    INDEX 01 00:15:64
  TRACK 19 AUDIO
    TITLE "5:cjc051_1042"
    INDEX 01 00:16:71
  TRACK 20 AUDIO
    TITLE "5:cjc051_1043"
    INDEX 01 00:17:53
  TRACK 21 AUDIO
    TITLE "5:cjc051_1044"
    INDEX 01 00:18:39
  TRACK 22 AUDIO
    TITLE "6:cjc051_1045"
    INDEX 01 00:19:36
  TRACK 23 AUDIO
    TITLE "5:cjc051_1046"
    INDEX 01 00:20:61
  TRACK 24 AUDIO
    TITLE "5:cjc051_1047"
    INDEX 01 00:21:55
  TRACK 25 AUDIO
    TITLE "5:cjc051_1048"
    INDEX 01 00:22:48
  TRACK 26 AUDIO
    TITLE "6:cjc051_1049"
    INDEX 01 00:23:53
  TRACK 27 AUDIO
    TITLE "5:cjc051_1050"
    INDEX 01 00:24:61
  TRACK 28 AUDIO
    TITLE "5:cjc051_1051"
    INDEX 01 00:25:54
  TRACK 29 AUDIO
    TITLE "5:cjc051_1052"
    INDEX 01 00:26:48
  TRACK 30 AUDIO
    TITLE "6:cjc051_1053"
    INDEX 01 00:27:57
  TRACK 31 AUDIO
    TITLE "5:cjc051_1054"
    INDEX 01 00:28:57
  TRACK 32 AUDIO
    TITLE "5:cjc051_1055"
    INDEX 01 00:29:50
  TRACK 33 AUDIO
    TITLE "5:cjc051_1056"
    INDEX 01 00:30:40
  TRACK 34 AUDIO
    TITLE "6:cjc051_1057"
    INDEX 01 00:31:45
  TRACK 35 AUDIO
    TITLE "5:cjc051_1058"
    INDEX 01 00:32:48
  TRACK 36 AUDIO
    TITLE "5:cjc051_1059"
    INDEX 01 00:33:48
  TRACK 37 AUDIO
    TITLE "5:cjc051_1060"
    INDEX 01 00:34:53
  TRACK 38 AUDIO
    TITLE "6:cjc051_1061"
    INDEX 01 00:35:66
  TRACK 39 AUDIO
    TITLE "5:cjc051_1062"
    INDEX 01 00:36:50
  TRACK 40 AUDIO
    TITLE "5:cjc051_1063"
    INDEX 01 00:37:42
  TRACK 41 AUDIO
    TITLE "5:cjc051_1064"
    INDEX 01 00:38:37
  TRACK 42 AUDIO
    TITLE "6:cjc051_1065"
    INDEX 01 00:39:41
  TRACK 43 AUDIO
    TITLE "5:cjc051_1066"
    INDEX 01 00:40:38
  TRACK 44 AUDIO
    TITLE "5:cjc051_1067"
    INDEX 01 00:41:30
  TRACK 45 AUDIO
    TITLE "5:cjc051_1068"
    INDEX 01 00:42:29
  TRACK 46 AUDIO
    TITLE "6:cjc051_1069"
    INDEX 01 00:43:37
  TRACK 47 AUDIO
    TITLE "5:cjc051_1070"
    INDEX 01 00:44:58
  TRACK 48 AUDIO
    TITLE "5:cjc051_1071"
    INDEX 01 00:45:51
  TRACK 49 AUDIO
    TITLE "5:cjc051_1072"
    INDEX 01 00:46:49
  TRACK 50 AUDIO
    TITLE "6:cjc051_1073"
    INDEX 01 00:47:62
  TRACK 51 AUDIO
    TITLE "5:cjc051_1074"
    INDEX 01 00:48:67
  TRACK 52 AUDIO
    TITLE "5:cjc051_1075"
    INDEX 01 00:49:67
  TRACK 53 AUDIO
    TITLE "5:cjc051_1076"
    INDEX 01 00:50:60
  TRACK 54 AUDIO
    TITLE "6:cjc051_1077"
    INDEX 01 00:51:65
  TRACK 55 AUDIO
    TITLE "5:cjc051_1078"
    INDEX 01 00:53:02
  TRACK 56 AUDIO
    TITLE "5:cjc051_1079"
    INDEX 01 00:53:70
  TRACK 57 AUDIO
    TITLE "5:cjc051_1080"
    INDEX 01 00:54:68
  TRACK 58 AUDIO
    TITLE "6:cjc051_1081"
    INDEX 01 00:56:04
  TRACK 59 AUDIO
    TITLE "5:cjc051_1082"
    INDEX 01 00:57:23
  TRACK 60 AUDIO
    TITLE "5:cjc051_1083"
    INDEX 01 00:58:22
  TRACK 61 AUDIO
    TITLE "5:cjc051_1084"
    INDEX 01 00:59:14
  TRACK 62 AUDIO
    TITLE "6:cjc051_1085"
    INDEX 01 01:00:21
  TRACK 63 AUDIO
    TITLE "5:cjc051_1086"
    INDEX 01 01:01:56
  TRACK 64 AUDIO
    TITLE "5:cjc051_1087"
    INDEX 01 01:02:46
  TRACK 65 AUDIO
    TITLE "5:cjc051_1088"
    INDEX 01 01:03:37
  TRACK 66 AUDIO
    TITLE "6:cjc051_1089"
    INDEX 01 01:04:45
  TRACK 67 AUDIO
    TITLE "5:cjc051_1090"
    INDEX 01 01:05:69
  TRACK 68 AUDIO
    TITLE "5:cjc051_1091"
    INDEX 01 01:06:69
  TRACK 69 AUDIO
    TITLE "5:cjc051_1092"
    INDEX 01 01:07:66
  TRACK 70 AUDIO
    TITLE "6:cjc051_1093"
    INDEX 01 01:09:09
  TRACK 71 AUDIO
    TITLE "5:cjc051_1094"
    INDEX 01 01:10:33
  TRACK 72 AUDIO
    TITLE "5:cjc051_1095"
    INDEX 01 01:11:25
  TRACK 73 AUDIO
    TITLE "5:cjc051_1096"
    INDEX 01 01:12:19
  TRACK 74 AUDIO
    TITLE "6:cjc051_1097"
    INDEX 01 01:13:26
  TRACK 75 AUDIO
    TITLE "5:cjc051_1098"
    INDEX 01 01:14:33
  TRACK 76 AUDIO
    TITLE "5:cjc051_1099"
    INDEX 01 01:15:25
  TRACK 77 AUDIO
    TITLE "5:cjc051_1100"
    INDEX 01 01:16:14
  TRACK 78 AUDIO
    TITLE "6:cjc051_1101"
    INDEX 01 01:17:22
  TRACK 79 AUDIO
    TITLE "5:cjc051_1102"
    INDEX 01 01:18:37
  TRACK 80 AUDIO
    TITLE "5:cjc051_1103"
    INDEX 01 01:19:30
  TRACK 81 AUDIO
    TITLE "5:cjc051_1104"
    INDEX 01 01:20:22
  TRACK 82 AUDIO
    TITLE "6:cjc051_1105"
    INDEX 01 01:21:33
  TRACK 83 AUDIO
    TITLE "5:cjc051_1106"
    INDEX 01 01:22:54
  TRACK 84 AUDIO
    TITLE "5:cjc051_1107"
    INDEX 01 01:23:38
  TRACK 85 AUDIO
    TITLE "5:cjc051_1108"
    INDEX 01 01:24:24
  TRACK 86 AUDIO
    TITLE "6:cjc051_1109"
    INDEX 01 01:25:31
  TRACK 87 AUDIO
    TITLE "5:cjc051_1110"
    INDEX 01 01:26:60
  TRACK 88 AUDIO
    TITLE "5:cjc051_1111"
    INDEX 01 01:27:50
  TRACK 89 AUDIO
    TITLE "5:cjc051_1112"
    INDEX 01 01:28:43
  TRACK 90 AUDIO
    TITLE "6:cjc051_1113"
    INDEX 01 01:29:52
  TRACK 91 AUDIO
    TITLE "5:cjc051_1114"
    INDEX 01 01:31:00
  TRACK 92 AUDIO
    TITLE "5:cjc051_1115"
    INDEX 01 01:31:65
  TRACK 93 AUDIO
    TITLE "5:cjc051_1116"
    INDEX 01 01:32:55
  TRACK 94 AUDIO
    TITLE "6:cjc051_1117"
    INDEX 01 01:33:60
  TRACK 95 AUDIO
    TITLE "5:cjc051_1118"
    INDEX 01 01:34:67
  TRACK 96 AUDIO
    TITLE "5:cjc051_1119"
    INDEX 01 01:35:63
  TRACK 97 AUDIO
    TITLE "5:cjc051_1120"
    INDEX 01 01:36:58
  TRACK 98 AUDIO
    TITLE "6:cjc051_1121"
    INDEX 01 01:37:66
  TRACK 99 AUDIO
    TITLE "5:cjc051_1122"
    INDEX 01 01:39:00
  TRACK 100 AUDIO
    TITLE "5:cjc051_1123"
    INDEX 01 01:39:72
  TRACK 101 AUDIO
    TITLE "5:cjc051_1124"
    INDEX 01 01:40:66
  TRACK 102 AUDIO
    TITLE "6:cjc051_1125"
    INDEX 01 01:41:73
  TRACK 103 AUDIO
    TITLE "5:cjc051_1126"
    INDEX 01 01:43:15
  TRACK 104 AUDIO
    TITLE "5:cjc051_1127"
    INDEX 01 01:44:17
  TRACK 105 AUDIO
    TITLE "5:cjc051_1128"
    INDEX 01 01:45:16
  TRACK 106 AUDIO
    TITLE "6:cjc051_1129"
    INDEX 01 01:46:29
  TRACK 107 AUDIO
    TITLE "5:cjc051_1130"
    INDEX 01 01:47:48
  TRACK 108 AUDIO
    TITLE "5:cjc051_1131"
    INDEX 01 01:48:40
  TRACK 109 AUDIO
    TITLE "5:cjc051_1132"
    INDEX 01 01:49:35
  TRACK 110 AUDIO
    TITLE "6:cjc051_1133"
    INDEX 01 01:50:47
  TRACK 111 AUDIO
    TITLE "5:cjc051_1134"
    INDEX 01 01:52:02
  TRACK 112 AUDIO
    TITLE "5:cjc051_1135"
    INDEX 01 01:52:71
  TRACK 113 AUDIO
    TITLE "5:cjc051_1136"
    INDEX 01 01:53:63
  TRACK 114 AUDIO
    TITLE "6:cjc051_1137"
    INDEX 01 01:54:70
  TRACK 115 AUDIO
    TITLE "5:cjc051_1138"
    INDEX 01 01:56:02
  TRACK 116 AUDIO
    TITLE "5:cjc051_1139"
    INDEX 01 01:56:67
  TRACK 117 AUDIO
    TITLE "5:cjc051_1140"
    INDEX 01 01:57:60
  TRACK 118 AUDIO
    TITLE "6:cjc051_1141"
    INDEX 01 01:58:66
  TRACK 119 AUDIO
    TITLE "5:cjc051_1142"
    INDEX 01 02:00:00
  TRACK 120 AUDIO
    TITLE "5:cjc051_1143"
    INDEX 01 02:00:65
  TRACK 121 AUDIO
    TITLE "5:cjc051_1144"
    INDEX 01 02:01:60
  TRACK 122 AUDIO
    TITLE "6:cjc051_1145"
    INDEX 01 02:02:66
  TRACK 123 AUDIO
    TITLE "5:cjc051_1146"
    INDEX 01 02:03:73
  TRACK 124 AUDIO
    TITLE "5:cjc051_1147"
    INDEX 01 02:04:72
  TRACK 125 AUDIO
    TITLE "5:cjc051_1148"
    INDEX 01 02:05:70
  TRACK 126 AUDIO
    TITLE "6:cjc051_1149"
    INDEX 01 02:07:08
  TRACK 127 AUDIO
    TITLE "5:cjc051_1150"
    INDEX 01 02:08:11
  TRACK 128 AUDIO
    TITLE "5:cjc051_1151"
    INDEX 01 02:09:15
  TRACK 129 AUDIO
    TITLE "5:cjc051_1152"
    INDEX 01 02:10:16
  TRACK 130 AUDIO
    TITLE "6:cjc051_1153"
    INDEX 01 02:11:29
  TRACK 131 AUDIO
    TITLE "5:cjc051_1154"
    INDEX 01 02:12:46
  TRACK 132 AUDIO
    TITLE "5:cjc051_1155"
    INDEX 01 02:13:48
  TRACK 133 AUDIO
    TITLE "5:cjc051_1156"
    INDEX 01 02:14:49
  TRACK 134 AUDIO
    TITLE "6:cjc051_1157"
    INDEX 01 02:15:62
  TRACK 135 AUDIO
    TITLE "5:cjc051_1158"
    INDEX 01 02:16:66
  TRACK 136 AUDIO
    TITLE "5:cjc051_1159"
    INDEX 01 02:17:59
  TRACK 137 AUDIO
    TITLE "5:cjc051_1160"
    INDEX 01 02:18:53
  TRACK 138 AUDIO
    TITLE "6:cjc051_1161"
    INDEX 01 02:19:62
  TRACK 139 AUDIO
    TITLE "5:cjc051_1162"
    INDEX 01 02:20:61
  TRACK 140 AUDIO
    TITLE "5:cjc051_1163"
    INDEX 01 02:21:53
  TRACK 141 AUDIO
    TITLE "5:cjc051_1164"
    INDEX 01 02:22:51
  TRACK 142 AUDIO
    TITLE "6:cjc051_1165"
    INDEX 01 02:23:64
  TRACK 143 AUDIO
    TITLE "5:cjc051_1166"
    INDEX 01 02:25:10
  TRACK 144 AUDIO
    TITLE "5:cjc051_1167"
    INDEX 01 02:26:13
  TRACK 145 AUDIO
    TITLE "5:cjc051_1168"
    INDEX 01 02:27:14
  TRACK 146 AUDIO
    TITLE "6:cjc051_1169"
    INDEX 01 02:28:30
  TRACK 147 AUDIO
    TITLE "5:cjc051_1170"
    INDEX 01 02:29:17
  TRACK 148 AUDIO
    TITLE "5:cjc051_1171"
    INDEX 01 02:30:25
  TRACK 149 AUDIO
    TITLE "5:cjc051_1172"
    INDEX 01 02:31:20
  TRACK 150 AUDIO
    TITLE "6:cjc051_1173"
    INDEX 01 02:32:31
  TRACK 151 AUDIO
    TITLE "5:cjc051_1174"
    INDEX 01 02:33:60
  TRACK 152 AUDIO
    TITLE "5:cjc051_1175"
    INDEX 01 02:34:56
  TRACK 153 AUDIO
    TITLE "5:cjc051_1176"
    INDEX 01 02:35:45
  TRACK 154 AUDIO
    TITLE "6:cjc051_1177"
    INDEX 01 02:36:49
  TRACK 155 AUDIO
    TITLE "5:cjc051_1178"
    INDEX 01 02:37:70
  TRACK 156 AUDIO
    TITLE "5:cjc051_1179"
    INDEX 01 02:38:61
  TRACK 157 AUDIO
    TITLE "5:cjc051_1180"
    INDEX 01 02:39:55
  TRACK 158 AUDIO
    TITLE "6:cjc051_1181"
    INDEX 01 02:40:66
  TRACK 159 AUDIO
    TITLE "5:cjc051_1182"
    INDEX 01 02:42:12
  TRACK 160 AUDIO
    TITLE "5:cjc051_1183"
    INDEX 01 02:43:06
  TRACK 161 AUDIO
    TITLE "5:cjc051_1184"
    INDEX 01 02:44:05
  TRACK 162 AUDIO
    TITLE "6:cjc051_1185"
    INDEX 01 02:45:07
  TRACK 163 AUDIO
    TITLE "5:cjc051_1186"
    INDEX 01 02:46:33
  TRACK 164 AUDIO
    TITLE "5:cjc051_1187"
    INDEX 01 02:47:54
  TRACK 165 AUDIO
    TITLE "5:cjc051_1188"
    INDEX 01 02:48:70
  TRACK 166 AUDIO
    TITLE "6:cjc051_1189"
    INDEX 01 02:50:25
  TRACK 167 AUDIO
    TITLE "5:cjc051_1190"
    INDEX 01 02:51:35
  TRACK 168 AUDIO
    TITLE "5:cjc051_1191"
    INDEX 01 02:52:26
  TRACK 169 AUDIO
    TITLE "5:cjc051_1192"
    INDEX 01 02:53:20
  TRACK 170 AUDIO
    TITLE "6:cjc051_1193"
    INDEX 01 02:54:29
  TRACK 171 AUDIO
    TITLE "5:cjc051_1194"
    INDEX 01 02:55:23
  TRACK 172 AUDIO
    TITLE "5:cjc051_1195"
    INDEX 01 02:57:08
  TRACK 173 AUDIO
    TITLE "5:cjc051_1196"
    INDEX 01 02:58:05
  TRACK 174 AUDIO
    TITLE "6:cjc051_1197"
    INDEX 01 02:59:11
  TRACK 175 AUDIO
    TITLE "5:cjc051_1198"
    INDEX 01 03:00:04
  TRACK 176 AUDIO
    TITLE "5:cjc051_1199"
    INDEX 01 03:00:67
  TRACK 177 AUDIO
    TITLE "5:cjc051_1200"
    INDEX 01 03:01:60
  TRACK 178 AUDIO
    TITLE "6:cjc051_1201"
    INDEX 01 03:02:62
  TRACK 179 AUDIO
    TITLE "5:cjc051_1202"
    INDEX 01 03:04:06
  TRACK 180 AUDIO
    TITLE "5:cjc051_1203"
    INDEX 01 03:05:03
  TRACK 181 AUDIO
    TITLE "5:cjc051_1204"
    INDEX 01 03:06:09
  TRACK 182 AUDIO
    TITLE "6:cjc051_1205"
    INDEX 01 03:07:26
  TRACK 183 AUDIO
    TITLE "5:cjc051_1206"
    INDEX 01 03:08:45
  TRACK 184 AUDIO
    TITLE "5:cjc051_1207"
    INDEX 01 03:09:42
  TRACK 185 AUDIO
    TITLE "5:cjc051_1208"
    INDEX 01 03:10:40
  TRACK 186 AUDIO
    TITLE "6:cjc051_1209"
    INDEX 01 03:11:57
  TRACK 187 AUDIO
    TITLE "5:cjc051_1210"
    INDEX 01 03:12:68
  TRACK 188 AUDIO
    TITLE "5:cjc051_1211"
    INDEX 01 03:13:66
  TRACK 189 AUDIO
    TITLE "5:cjc051_1212"
    INDEX 01 03:14:67
  TRACK 190 AUDIO
    TITLE "6:cjc051_1213"
    INDEX 01 03:16:07
  TRACK 191 AUDIO
    TITLE "5:cjc051_1214"
    INDEX 01 03:17:07
  TRACK 192 AUDIO
    TITLE "5:cjc051_1215"
    INDEX 01 03:17:73
  TRACK 193 AUDIO
    TITLE "5:cjc051_1216"
    INDEX 01 03:18:61
  TRACK 194 AUDIO
    TITLE "6:cjc051_1217"
    INDEX 01 03:19:68
  TRACK 195 AUDIO
    TITLE "5:cjc051_1218"
    INDEX 01 03:21:10
  TRACK 196 AUDIO
    TITLE "5:cjc051_1219"
    INDEX 01 03:22:08
  TRACK 197 AUDIO
    TITLE "5:cjc051_1220"
    INDEX 01 03:23:05
  TRACK 198 AUDIO
    TITLE "6:cjc051_1221"
    INDEX 01 03:24:14
  TRACK 199 AUDIO
    TITLE "5:cjc051_1222"
    INDEX 01 03:25:26
  TRACK 200 AUDIO
    TITLE "5:cjc051_1223"
    INDEX 01 03:26:19
  TRACK 201 AUDIO
    TITLE "5:cjc051_1224"
    INDEX 01 03:27:19
  TRACK 202 AUDIO
    TITLE "6:cjc051_1225"
    INDEX 01 03:28:32
  TRACK 203 AUDIO
    TITLE "5:cjc051_1226"
    INDEX 01 03:29:69
  TRACK 204 AUDIO
    TITLE "5:cjc051_1227"
    INDEX 01 03:30:70
  TRACK 205 AUDIO
    TITLE "5:cjc051_1228"
    INDEX 01 03:31:69
  TRACK 206 AUDIO
    TITLE "6:cjc051_1229"
    INDEX 01 03:33:04
  TRACK 207 AUDIO
    TITLE "5:cjc051_1230"
    INDEX 01 03:34:15
  TRACK 208 AUDIO
    TITLE "5:cjc051_1231"
    INDEX 01 03:34:72
  TRACK 209 AUDIO
    TITLE "5:cjc051_1232"
    INDEX 01 03:35:57
  TRACK 210 AUDIO
    TITLE "6:cjc051_1233"
    INDEX 01 03:36:61
  TRACK 211 AUDIO
    TITLE "5:cjc051_1234"
    INDEX 01 03:37:66
  TRACK 212 AUDIO
    TITLE "5:cjc051_1235"
    INDEX 01 03:38:60
  TRACK 213 AUDIO
    TITLE "5:cjc051_1236"
    INDEX 01 03:39:57
  TRACK 214 AUDIO
    TITLE "6:cjc051_1237"
    INDEX 01 03:40:64
  TRACK 215 AUDIO
    TITLE "5:cjc051_1238"
    INDEX 01 03:41:58
  TRACK 216 AUDIO
    TITLE "5:cjc051_1239"
    INDEX 01 03:42:50
  TRACK 217 AUDIO
    TITLE "5:cjc051_1240"
    INDEX 01 03:43:49
  TRACK 218 AUDIO
    TITLE "6:cjc051_1241"
    INDEX 01 03:44:60
  TRACK 219 AUDIO
    TITLE "5:cjc051_1242"
    INDEX 01 03:46:08
  TRACK 220 AUDIO
    TITLE "5:cjc051_1243"
    INDEX 01 03:47:06
  TRACK 221 AUDIO
    TITLE "5:cjc051_1244"
    INDEX 01 03:48:01
  TRACK 222 AUDIO
    TITLE "6:cjc051_1245"
    INDEX 01 03:49:16
  TRACK 223 AUDIO
    TITLE "5:cjc051_1246"
    INDEX 01 03:50:20
  TRACK 224 AUDIO
    TITLE "5:cjc051_1247"
    INDEX 01 03:51:07
  TRACK 225 AUDIO
    TITLE "5:cjc051_1248"
    INDEX 01 03:51:70
  TRACK 226 AUDIO
    TITLE "6:cjc051_1249"
    INDEX 01 03:53:06
  TRACK 227 AUDIO
    TITLE "5:cjc051_1250"
    INDEX 01 03:54:29
  TRACK 228 AUDIO
    TITLE "5:cjc051_1251"
    INDEX 01 03:55:23
  TRACK 229 AUDIO
    TITLE "5:cjc051_1252"
    INDEX 01 03:56:22
  TRACK 230 AUDIO
    TITLE "6:cjc051_1253"
    INDEX 01 03:57:33
  TRACK 231 AUDIO
    TITLE "5:cjc051_1254"
    INDEX 01 03:58:27
  TRACK 232 AUDIO
    TITLE "5:cjc051_1255"
    INDEX 01 03:59:21
  TRACK 233 AUDIO
    TITLE "5:cjc051_1256"
    INDEX 01 04:00:12
  TRACK 234 AUDIO
    TITLE "6:cjc051_1257"
    INDEX 01 04:01:27
  TRACK 235 AUDIO
    TITLE "5:cjc051_1258"
    INDEX 01 04:02:54
  TRACK 236 AUDIO
    TITLE "5:cjc051_1259"
    INDEX 01 04:03:46
  TRACK 237 AUDIO
    TITLE "5:cjc051_1260"
    INDEX 01 04:04:39
  TRACK 238 AUDIO
    TITLE "6:cjc051_1261"
    INDEX 01 04:05:49
  TRACK 239 AUDIO
    TITLE "5:cjc051_1262"
    INDEX 01 04:06:54
  TRACK 240 AUDIO
    TITLE "5:cjc051_1263"
    INDEX 01 04:07:48
  TRACK 241 AUDIO
    TITLE "5:cjc051_1264"
    INDEX 01 04:08:33
  TRACK 242 AUDIO
    TITLE "6:cjc051_1265"
    INDEX 01 04:09:35
  TRACK 243 AUDIO
    TITLE "5:cjc051_1266"
    INDEX 01 04:10:62
  TRACK 244 AUDIO
    TITLE "5:cjc051_1267"
    INDEX 01 04:11:57
  TRACK 245 AUDIO
    TITLE "5:cjc051_1268"
    INDEX 01 04:12:49
  TRACK 246 AUDIO
    TITLE "6:cjc051_1269"
    INDEX 01 04:13:58
  TRACK 247 AUDIO
    TITLE "5:cjc051_1270"
    INDEX 01 04:14:73
  TRACK 248 AUDIO
    TITLE "5:cjc051_1271"
    INDEX 01 04:15:71
  TRACK 249 AUDIO
    TITLE "5:cjc051_1272"
    INDEX 01 04:16:64
  TRACK 250 AUDIO
    TITLE "6:cjc051_1273"
    INDEX 01 04:17:73
  TRACK 251 AUDIO
    TITLE "5:cjc051_1274"
    INDEX 01 04:19:02
  TRACK 252 AUDIO
    TITLE "5:cjc051_1275"
    INDEX 01 04:19:70
  TRACK 253 AUDIO
    TITLE "5:cjc051_1276"
    INDEX 01 04:20:66
  TRACK 254 AUDIO
    TITLE "6:cjc051_1277"
    INDEX 01 04:21:69
  TRACK 255 AUDIO
    TITLE "5:cjc051_1278"
    INDEX 01 04:22:69
  TRACK 256 AUDIO
    TITLE "5:cjc051_1279"
    INDEX 01 04:23:68
  TRACK 257 AUDIO
    TITLE "5:cjc051_1280"
    INDEX 01 04:24:68
  TRACK 258 AUDIO
    TITLE "6:cjc051_1281"
    INDEX 01 04:26:04
  TRACK 259 AUDIO
    TITLE "5:cjc051_1282"
    INDEX 01 04:27:17
  TRACK 260 AUDIO
    TITLE "5:cjc051_1283"
    INDEX 01 04:28:12
  TRACK 261 AUDIO
    TITLE "5:cjc051_1284"
    INDEX 01 04:29:08
  TRACK 262 AUDIO
    TITLE "6:cjc051_1285"
    INDEX 01 04:30:19
  TRACK 263 AUDIO
    TITLE "5:cjc051_1286"
    INDEX 01 04:31:23
  TRACK 264 AUDIO
    TITLE "5:cjc051_1287"
    INDEX 01 04:32:18
  TRACK 265 AUDIO
    TITLE "5:cjc051_1288"
    INDEX 01 04:33:14
  TRACK 266 AUDIO
    TITLE "6:cjc051_1289"
    INDEX 01 04:34:25
  TRACK 267 AUDIO
    TITLE "5:cjc051_1290"
    INDEX 01 04:35:28
  TRACK 268 AUDIO
    TITLE "5:cjc051_1291"
    INDEX 01 04:36:22
  TRACK 269 AUDIO
    TITLE "5:cjc051_1292"
    INDEX 01 04:37:21
  TRACK 270 AUDIO
    TITLE "6:cjc051_1293"
    INDEX 01 04:38:32
  TRACK 271 AUDIO
    TITLE "5:cjc051_1294"
    INDEX 01 04:39:53
  TRACK 272 AUDIO
    TITLE "5:cjc051_1295"
    INDEX 01 04:40:53
  TRACK 273 AUDIO
    TITLE "5:cjc051_1296"
    INDEX 01 04:41:48
  TRACK 274 AUDIO
    TITLE "6:cjc051_1297"
    INDEX 01 04:42:67
  TRACK 275 AUDIO
    TITLE "5:cjc051_1298"
    INDEX 01 04:44:08
  TRACK 276 AUDIO
    TITLE "5:cjc051_1299"
    INDEX 01 04:45:05
  TRACK 277 AUDIO
    TITLE "5:cjc051_1300"
    INDEX 01 04:46:06
  TRACK 278 AUDIO
    TITLE "6:cjc051_1301"
    INDEX 01 04:47:22
  TRACK 279 AUDIO
    TITLE "5:cjc051_1302"
    INDEX 01 04:48:23
  TRACK 280 AUDIO
    TITLE "5:cjc051_1303"
    INDEX 01 04:49:20
  TRACK 281 AUDIO
    TITLE "5:cjc051_1304"
    INDEX 01 04:50:22
  TRACK 282 AUDIO
    TITLE "6:cjc051_1305"
    INDEX 01 04:51:35
  TRACK 283 AUDIO
    TITLE "5:cjc051_1306"
    INDEX 01 04:52:40
  TRACK 284 AUDIO
    TITLE "5:cjc051_1307"
    INDEX 01 04:53:28
  TRACK 285 AUDIO
    TITLE "5:cjc051_1308"
    INDEX 01 04:54:16
  TRACK 286 AUDIO
    TITLE "6:cjc051_1309"
    INDEX 01 04:55:25
  TRACK 287 AUDIO
    TITLE "5:cjc051_1310"
    INDEX 01 04:56:40
  TRACK 288 AUDIO
    TITLE "5:cjc051_1311"
    INDEX 01 04:57:40
  TRACK 289 AUDIO
    TITLE "5:cjc051_1312"
    INDEX 01 04:58:29
  TRACK 290 AUDIO
    TITLE "6:cjc051_1313"
    INDEX 01 04:59:42
  TRACK 291 AUDIO
    TITLE "5:cjc051_1314"
    INDEX 01 05:00:61
  TRACK 292 AUDIO
    TITLE "5:cjc051_1315"
    INDEX 01 05:01:55
  TRACK 293 AUDIO
    TITLE "5:cjc051_1316"
    INDEX 01 05:02:51
  TRACK 294 AUDIO
    TITLE "6:cjc051_1317"
    INDEX 01 05:03:62
  TRACK 295 AUDIO
    TITLE "5:cjc051_1318"
    INDEX 01 05:04:71
  TRACK 296 AUDIO
    TITLE "5:cjc051_1319"
    INDEX 01 05:05:61
  TRACK 297 AUDIO
    TITLE "5:cjc051_1320"
    INDEX 01 05:06:50
  TRACK 298 AUDIO
    TITLE "0:"
    INDEX 01 05:07:60
